# xmcd
#
# Track frame offsets: 
#        150
#        13012
#        25290
#        40327
#        56062
#        73960
#        90115
#        100560
#        117212
#        128130
#        153240
#        168135
#        187027
#        199540
#        216810
#        240235
#        255685
#        272980
#        292697
#        314100
#
# Disc length: 4415 seconds
#
# Revision: 4
# Processed by: cddbd v1.5.2PL0 Copyright (c) Steve Scherf et al.
# Submitted via: ExactAudioCopy v0.95b4
#
DISCID=12113d14
DTITLE=Jimi Hendrix - Experience Hendrix-The Best Of Jimi Hendrix
DYEAR=1997
DGENRE=Rock
TTITLE0=Purple Haze
TTITLE1=Fire
TTITLE2=The Wind Cries Mary
TTITLE3=Hey Joe
TTITLE4=All Along The Watchtower
TTITLE5=Stone Free
TTITLE6=Crosstown Traffic
TTITLE7=Manic Depression
TTITLE8=Little Wing
TTITLE9=If 6 Was 9
TTITLE10=Foxy Lady
TTITLE11=Bold As Love
TTITLE12=Castles Made Of Sand
TTITLE13=Red House
TTITLE14=Voodoo Child (Slight Return)
TTITLE15=Freedom
TTITLE16=Night Bird Flying
TTITLE17=Angel
TTITLE18=Dolly Dagger
TTITLE19=Star Spangled Banner
EXTD=
EXTT0=
EXTT1=
EXTT2=
EXTT3=
EXTT4=
EXTT5=
EXTT6=
EXTT7=
EXTT8=
EXTT9=
EXTT10=
EXTT11=
EXTT12=
EXTT13=
EXTT14=
EXTT15=
EXTT16=
EXTT17=
EXTT18=
EXTT19=
PLAYORDER=
